Coordinates
version=1
nRows=11
nColumns=40
inDegrees=yes

Units are S.I. units (second, meters, Newtons, ...)
Angles are in degrees.

endheader
time	pelvis_tilt	pelvis_list	pelvis_rotation	pelvis_tx	pelvis_ty	pelvis_tz	hip_flexion_r	hip_adduction_r	hip_rotation_r	knee_angle_r	knee_angle_r_beta	ankle_angle_r	subtalar_angle_r	mtp_angle_r	hip_flexion_l	hip_adduction_l	hip_rotation_l	knee_angle_l	knee_angle_l_beta	ankle_angle_l	subtalar_angle_l	mtp_angle_l	lumbar_extension	lumbar_bending	lumbar_rotation	arm_flex_r	arm_add_r	arm_rot_r	elbow_flex_r	pro_sup_r	wrist_flex_r	wrist_dev_r	arm_flex_l	arm_add_l	arm_rot_l	elbow_flex_l	pro_sup_l	wrist_flex_l	wrist_dev_l
      2.89314286	     -3.32221322	     -5.21191913	     -2.36698618	      1.00502027	      0.93663974	      0.42514185	     30.75739403	     -5.32460334	     -3.59994887	     56.15060035	     56.15060035	      0.33411946	     -7.75308688	     -1.87077878	     10.68930809	     -6.99467209	    -11.42380060	     19.63322134	     19.63322134	     13.37115925	    -11.25936159	      0.23380033	    -10.36911758	      6.45991644	      2.02068680	     -6.28610065	    -11.41181909	     -4.42690791	     25.93522476	     46.22455539	      0.00000000	      0.00000000	     26.00154297	    -21.61417450	     -5.08520295	     60.03032183	     46.93372287	      0.00000000	      0.00000000
      2.90628571	     -3.48791347	     -5.33410510	     -2.82406370	      1.00440462	      0.93690108	      0.42582968	     30.88715330	     -4.97645672	     -3.94949579	     53.03065570	     53.03065570	      0.57883698	     -7.36000639	     -1.62888050	     10.17836377	     -7.11984777	    -11.74170845	     19.12493491	     19.12493491	     13.44666874	    -11.33739089	      0.23963555	    -10.32396237	      6.57116374	      1.95242832	     -7.14098130	    -11.35704804	     -4.47504051	     25.79155290	     46.22784856	      0.00000000	      0.00000000	     26.71428747	    -22.12405161	     -5.46512335	     60.88302350	     46.98392478	      0.00000000	      0.00000000
      2.91942857	     -3.72400186	     -5.39655737	     -3.28972166	      1.00380307	      0.93694980	      0.42663648	     30.91463625	     -4.64031728	     -4.30278089	     49.48969026	     49.48969026	      0.86590848	     -6.72730432	     -1.41811286	      9.74591106	     -7.19304286	    -12.07468188	     18.62210763	     18.62210763	     13.49100519	    -11.37537829	      0.22441731	    -10.22584343	      6.62069142	      2.02226066	     -7.97346317	    -11.28455773	     -4.52383355	     25.69225362	     46.22894146	      0.00000000	      0.00000000	     27.39090940	    -22.52959927	     -5.84325785	     61.89971760	     47.03534775	      0.00000000	      0.00000000
      2.93257143	     -3.82856027	     -5.43371502	     -3.76233420	      1.00331680	      0.93704813	      0.42757710	     30.59667820	     -4.31285501	     -4.75857097	     45.52620983	     45.52620983	      1.10570290	     -5.74689229	     -1.40742673	      9.13021480	     -7.23015894	    -12.44417480	     18.06791934	     18.06791934	     13.55026736	    -11.38363697	      0.08629040	    -10.31818733	      6.59479230	      2.23279012	     -8.78633572	    -11.27812872	     -4.63573974	     25.79318734	     46.22699627	      0.00000000	      0.00000000	     27.85035035	    -22.72386659	     -6.35286831	     63.44770689	     47.10378000	      0.00000000	      0.00000000
      2.94571429	     -4.04827258	     -5.41377635	     -4.22123343	      1.00288991	      0.93676469	      0.42862102	     30.16266203	     -3.99332800	     -5.28777070	     41.07523109	     41.07523109	      0.70157205	     -4.73330051	     -3.23058128	      8.66701678	     -7.22825416	    -12.86763380	     17.53269251	     17.53269251	     13.28551476	    -11.53152561	     -0.80685393	    -10.32971349	      6.52536360	      1.81591682	     -9.47193392	    -11.24802779	     -5.05532417	     27.00014945	     46.20804576	      0.00000000	      0.00000000	     27.14905347	    -23.24656873	     -8.16201583	     66.79558340	     47.30028170	      0.00000000	      0.00000000
      2.95885714	     -4.23265369	     -5.40073071	     -4.61793858	      1.00257238	      0.93645944	      0.42974968	     29.53617441	     -3.65093632	     -5.97253247	     36.45522747	     36.45522747	      0.93240959	     -2.96543222	     -3.07979852	      8.21417042	     -7.24111022	    -13.23820601	     17.11630695	     17.11630695	     13.37730824	    -11.49710989	     -0.94361930	    -10.25801614	      6.47440279	      1.97734322	     -9.94449994	    -11.20810139	     -5.00850975	     26.81784960	     46.21005123	      0.00000000	      0.00000000	     27.71029946	    -23.35645849	     -8.44660855	     67.59650980	     47.34241517	      0.00000000	      0.00000000
      2.97200000	     -4.61047413	     -5.36073166	     -4.98625004	      1.00219700	      0.93571482	      0.43106862	     28.97474489	     -3.18456361	     -6.53810518	     31.65468239	     31.65468239	      1.02022581	     -1.30089765	     -2.47465964	      8.06958895	     -7.26749785	    -13.51788418	     16.85644562	     16.85644562	     13.50628752	    -11.52761616	     -1.07538414	     -9.95054819	      6.40398787	      2.06881899	    -10.25276268	    -11.08901985	     -4.99801499	     26.78040063	     46.20837760	      0.00000000	      0.00000000	     28.11550691	    -23.55742937	     -8.62478016	     68.14417679	     47.36897914	      0.00000000	      0.00000000
      2.98514286	     -4.67829429	     -5.34363936	     -5.26850772	      1.00230700	      0.93524845	      0.43233377	     27.82516964	     -2.75487109	     -7.45475829	     26.67358866	     26.67358866	      1.08815435	      1.08031653	     -1.80573494	      7.56156162	     -7.29214487	    -13.81794463	     16.60269182	     16.60269182	     13.68266485	    -11.43524794	     -1.32291868	     -9.95436908	      6.37595473	      2.17595069	    -10.57859052	    -11.14137519	     -5.02553371	     26.78231297	     46.20843277	      0.00000000	      0.00000000	     28.39592457	    -23.57396600	     -8.85971581	     68.93316976	     47.40331554	      0.00000000	      0.00000000
      2.99828571	     -4.74998883	     -5.22778183	     -5.50474969	      1.00255408	      0.93452300	      0.43368081	     26.65715243	     -2.40113708	     -8.49328419	     21.91896021	     21.91896021	      1.07137678	      3.82891413	     -0.86189648	      7.07250634	     -7.22400370	    -14.18149255	     16.37037887	     16.37037887	     13.87381254	    -11.25791194	     -1.69401165	     -9.93330443	      6.23006525	      2.24831354	    -10.74812297	    -11.10164622	     -5.06006163	     26.91678063	     46.20484925	      0.00000000	      0.00000000	     28.55576738	    -23.58053532	     -9.18888577	     69.79936770	     47.44578904	      0.00000000	      0.00000000
      3.01142857	     -4.87282785	     -5.10666530	     -5.68132218	      1.00301727	      0.93355649	      0.43519649	     25.54216046	     -1.96715738	     -9.45652253	     17.54378246	     17.54378246	      0.96239391	      6.21815858	      0.46886723	      6.67817207	     -7.16841948	    -14.42373668	     16.21331572	     16.21331572	     14.09031817	    -11.13649798	     -2.05176546	     -9.77755341	      6.09125341	      2.24977709	    -10.81311067	    -11.05238640	     -5.07853370	     27.04927236	     46.20081824	      0.00000000	      0.00000000	     28.61263138	    -23.53544247	     -9.41700292	     70.41015364	     47.47572341	      0.00000000	      0.00000000
      3.02457143	     -4.94997238	     -4.96928880	     -5.79183337	      1.00367185	      0.93250122	      0.43677134	     24.49193279	     -1.55310841	    -10.43777727	     13.83803541	     13.83803541	      0.83311950	      8.36306200	      1.99073985	      6.25407789	     -7.09151832	    -14.65300324	     16.08904984	     16.08904984	     14.32695075	    -11.00833041	     -2.39553506	     -9.64577041	      5.93459217	      2.24643151	    -10.76804594	    -10.99204864	     -5.07756245	     27.18457045	     46.19606818	      0.00000000	      0.00000000	     28.61001907	    -23.43061795	     -9.58408622	     70.86078669	     47.49803174	      0.00000000	      0.00000000
